<svg width="501" height="526" viewBox="0 0 501 526" fill="none" xmlns="http://www.w3.org/2000/svg">
<path fill-rule="evenodd" clip-rule="evenodd" d="M427.723 262.921L500.118 181.712L393.815 158.541L404.647 50.2928L305.019 94.0147L250.115 0.0820312L195.248 94.0052L95.6367 50.2552L106.445 158.504L0.129979 181.656L72.5131 262.883L0.118164 344.092L106.421 367.262L95.5921 475.506L195.217 431.784L250.119 525.717L304.986 431.798L404.602 475.543L393.796 367.295L500.106 344.143L427.723 262.921ZM462.841 324.011L400.132 302.566L358.527 248.501L413.868 269.057L462.841 324.011ZM294.834 420.574L257.33 484.771V416.697L296.314 359.827L294.834 420.574ZM229.14 154.412L164.608 131.467L125.996 79.3448L193.672 109.067L229.14 154.412ZM306.595 109.08L374.264 79.3779L335.629 131.467L271.113 154.405L306.595 109.08ZM379.011 161.61L345.358 209.324L347.265 139.998L386.461 87.152L379.011 161.61ZM250.117 401.707L204.965 335.839L250.117 274.583L295.269 335.839L250.117 401.707ZM169.816 227.764L167.618 147.845L242.904 174.612V252.385L169.816 227.764ZM257.33 174.612L332.618 147.845L330.418 227.764L257.33 252.385V174.612ZM121.251 161.581L113.817 87.1388L152.971 139.993L154.876 209.304L121.251 161.581ZM238.445 266.108L193.309 327.341L116.631 304.741L165.32 241.473L238.445 266.108ZM203.911 359.813L242.904 416.698V484.785L205.368 420.562L203.911 359.813ZM261.789 266.108L334.914 241.473L383.606 304.741L306.925 327.341L261.789 266.108ZM472.918 190.548L415.955 254.444L348.785 229.494L389.137 172.283L472.918 190.548ZM250.119 28.6759L293.335 102.614L250.119 157.819L206.932 102.607L250.119 28.6759ZM27.3297 190.492L111.121 172.251L151.452 229.49L84.2853 254.408L27.3297 190.492ZM86.3657 269.021L141.721 248.485L100.11 302.559L37.374 323.975L86.3657 269.021ZM40.544 338.139L104.657 316.253L171.434 335.932L113.898 354.131L40.544 338.139ZM120.943 367.028L189.136 345.457L190.875 417.933L112.404 452.377L120.943 367.028ZM309.328 417.951L311.094 345.461L379.273 367.054L387.795 452.406L309.328 417.951ZM386.318 354.157L328.786 335.936L395.583 316.251L459.707 338.18L386.318 354.157Z" fill="white"/>
</svg>
